<?xml version="1.0" standalone="no"?>
<!DOCTYPE svg PUBLIC "-//W3C//DTD SVG 20010904//EN"
 "http://www.w3.org/TR/2001/REC-SVG-20010904/DTD/svg10.dtd">
<svg version="1.0" xmlns="http://www.w3.org/2000/svg"
 width="333.000000pt" height="151.000000pt" viewBox="0 0 333.000000 151.000000"
 preserveAspectRatio="xMidYMid meet">

<g transform="translate(0.000000,151.000000) scale(0.100000,-0.100000)"
fill="#000000" stroke="none">
<path d="M997 1083 c-4 -3 -7 -122 -7 -263 0 -293 0 -295 -72 -295 l-43 0 -3
-47 c-3 -47 -3 -47 32 -54 51 -9 101 3 137 33 56 48 59 66 59 363 l0 270 -48
0 c-27 0 -52 -3 -55 -7z"/>
<path d="M1220 830 l0 -260 55 0 55 0 0 260 0 260 -55 0 -55 0 0 -260z"/>
<path d="M1422 1038 l3 -53 68 -3 67 -3 0 -204 0 -205 60 0 60 0 0 205 0 204
68 3 67 3 3 53 3 52 -201 0 -201 0 3 -52z"/>
<path d="M1890 830 l0 -260 160 0 160 0 0 45 0 45 -105 0 -105 0 0 65 0 65 90
0 90 0 0 50 0 50 -90 0 -90 0 0 50 0 50 105 0 105 0 0 50 0 50 -160 0 -160 0
0 -260z"/>
<path d="M2290 830 l0 -260 55 0 55 0 0 110 c0 66 4 110 10 110 5 0 35 -49 65
-110 l55 -110 60 0 c33 0 60 3 60 7 0 4 -25 50 -55 104 -58 102 -64 119 -41
119 23 0 83 75 90 113 4 20 2 54 -4 75 -20 77 -76 101 -237 102 l-113 0 0
-260z m224 144 c23 -22 20 -60 -6 -78 -12 -9 -42 -16 -65 -16 l-43 0 0 55 0
55 49 0 c32 0 55 -6 65 -16z"/>
<path d="M2871 1068 c-5 -13 -34 -97 -65 -188 -32 -91 -68 -196 -82 -233 -13
-38 -24 -70 -24 -73 0 -2 26 -4 58 -4 l58 0 18 55 17 56 86 -3 86 -3 17 -50
17 -50 56 -3 c31 -2 57 1 57 5 0 4 -39 122 -87 261 l-86 252 -59 0 c-51 0 -60
-3 -67 -22z m93 -170 c14 -45 24 -83 22 -85 -2 -2 -26 -3 -53 -1 l-49 3 24 83
c14 45 26 82 28 82 2 0 15 -37 28 -82z"/>
<path d="M213 1045 c-18 -19 -33 -38 -33 -42 0 -5 34 -42 75 -83 41 -41 75
-81 75 -90 0 -9 -36 -51 -80 -95 l-80 -79 42 -43 42 -43 123 122 c68 68 123
127 123 133 0 10 -241 256 -250 254 -3 0 -20 -16 -37 -34z"/>
</g>
</svg>
